# xmcd
#
# Track frame offsets:
#	150
#	26320
#	51642
#	73236
#	95245
#	115171
#	139580
#	163121
#	185745
#	202711
#	220886
#	234751
#	254983
#	268297
#	290721
#	312622
#
# Disc length: 4488 seconds
#
# Revision: 3
# Processed by: cddbd v1.5.2PL0 Copyright (c) Steve Scherf et al.
# Submitted via: audiograbber 1.83.01
#
DISCID=07118610
DTITLE=Mark Knopfler - Shangri-La  2004
DYEAR=2004
DGENRE=Blues
TTITLE0=5:15 am
TTITLE1=Boom, Like That
TTITLE2=Sucker Row
TTITLE3=The Trawlerman's Song
TTITLE4=Back To Tupelo
TTITLE5=Our Shangri-La
TTITLE6=Everybody Pays
TTITLE7=Song For Sonny Liston
TTITLE8=Whoop De Doo
TTITLE9=Postcards From Paraguay
TTITLE10=All That Matters
TTITLE11=Stand Up Guy
TTITLE12=Donegan's Gone
TTITLE13=Don't Crash The Ambulance
TTITLE14=What it is
TTITLE15=El Macho
EXTD=
EXTT0=
EXTT1=
EXTT2=
EXTT3=
EXTT4=
EXTT5=
EXTT6=
EXTT7=
EXTT8=
EXTT9=
EXTT10=
EXTT11=
EXTT12=
EXTT13=
EXTT14=
EXTT15=
PLAYORDER=
